<?xml version="1.0" encoding="UTF-8" standalone="no"?>
<!-- Created with Inkscape (http://www.inkscape.org/) -->

<svg
   width="57.546051mm"
   height="41.319313mm"
   viewBox="0 0 57.546051 41.319313"
   version="1.1"
   id="svg1"
   xml:space="preserve"
   xmlns:xlink="http://www.w3.org/1999/xlink"
   xmlns="http://www.w3.org/2000/svg"
   xmlns:svg="http://www.w3.org/2000/svg"><defs
     id="defs1"><linearGradient
       id="linearGradient3"><stop
         style="stop-color:#00002b;stop-opacity:0;"
         offset="0"
         id="stop4" /><stop
         style="stop-color:#00002b;stop-opacity:1;"
         offset="1"
         id="stop3" /></linearGradient><linearGradient
       id="linearGradient1"><stop
         style="stop-color:#00002b;stop-opacity:1;"
         offset="0"
         id="stop1" /><stop
         style="stop-color:#00002b;stop-opacity:0;"
         offset="1"
         id="stop2" /></linearGradient><linearGradient
       xlink:href="#linearGradient3"
       id="linearGradient40"
       gradientUnits="userSpaceOnUse"
       x1="48.993973"
       y1="59.861916"
       x2="68.268677"
       y2="59.861916" /><linearGradient
       xlink:href="#linearGradient1"
       id="linearGradient41"
       gradientUnits="userSpaceOnUse"
       x1="48.991966"
       y1="75.894974"
       x2="65.020599"
       y2="75.894974" /></defs><g
     id="layer1"
     style="display:inline"
     transform="translate(-68.347039,-80.381667)"><g
       id="g39"
       transform="matrix(0.79312263,0,0,0.79312263,50.776823,6.7242303)"><rect
         style="fill:#000000;stroke:#000000;stroke-width:0.0998426;stroke-opacity:1"
         id="rect24"
         width="72.456467"
         height="51.997162"
         x="22.203136"
         y="92.92009"
         rx="1.3753202"
         ry="2.6341839" /><g
         id="g38"
         transform="translate(-46.56863,-29.581331)"><g
           id="g35"
           transform="translate(48.992157,114.3981)"><g
             id="g31"
             transform="matrix(0.57814277,0,0,0.57814277,8.341449,9.2970915)"><g
               id="g30"
               transform="translate(-18.883853,-21.773265)"><path
                 style="display:inline;fill:#008080"
                 d="m 58.140013,82.572418 c -3.894119,-2.370992 -7.56557,-4.931657 -8.053568,-5.616988 -1.580091,-2.219033 -1.059172,-7.737901 -0.80409,-7.737901 0.819923,0 13.954781,9.260416 15.738241,9.260416 3.360076,-0.639527 8.999751,-4.183386 9.095674,-7.951696 -0.626529,-5.9345 -6.310287,-8.723994 -10.450052,-12.17993 4.691657,0.405178 8.656538,3.510765 12.567708,5.870149 4.137485,2.431324 4.819979,3.401058 4.716886,7.975928 -0.122602,4.961108 0.289711,4.493639 -9.323731,10.571011 -5.842877,4.034121 -7.720911,3.421812 -13.487068,-0.190989 z"
                 id="path27" /><path
                 style="display:inline;fill:#008080"
                 d="m 61.349854,70.592122 c -1.266915,-0.839579 -4.059207,-2.637978 -6.189347,-4.020426 -6.020715,-3.907409 -6.303448,-4.340103 -6.134056,-9.387547 0.152222,-4.535803 -0.123336,-4.22149 8.587037,-9.794744 5.91392,-3.783969 7.38409,-4.211945 10.021481,-2.917322 2.398257,1.177237 4.800346,2.975895 10.177241,6.298282 1.068416,0.660175 1.883899,1.419125 2.401066,2.234613 1.172792,2.136552 1.020176,5.098628 0.671449,7.481301 -0.493443,0 -14.029884,-9.260416 -15.999687,-9.260416 -1.243183,0 -8.102765,3.559128 -8.633493,5.879496 -0.355133,1.552664 0.2348,1.974734 8.521588,7.422502 6.983105,4.590722 2.274391,9.840081 -3.423279,6.064261 z"
                 id="path28" /><path
                 style="display:inline;fill:url(#linearGradient40)"
                 d="m 61.349854,70.592122 c -1.266915,-0.839579 -4.059207,-2.637978 -6.189347,-4.020426 -6.020715,-3.907409 -6.303449,-4.340103 -6.134056,-9.387547 0.147619,-4.398641 -0.107061,-4.236064 7.821226,-9.304995 3.942913,-0.310307 5.769419,1.14802 3.991518,5.097094 -2.119675,1.224706 -4.29776,2.861699 -4.58765,4.129111 -0.355134,1.552664 0.2348,1.974734 8.521588,7.422502 6.983105,4.590722 2.274391,9.840081 -3.423279,6.064261 z"
                 id="path29" /><path
                 style="display:inline;fill:url(#linearGradient41)"
                 d="m 58.140013,82.572418 c -3.894119,-2.370992 -7.56557,-4.931657 -8.053568,-5.616988 -1.580091,-2.219033 -1.059172,-7.737901 -0.80409,-7.737901 0.819923,0 13.954781,9.260416 15.738241,9.260416 -0.798599,2.75883 -3.295813,3.991534 -6.880583,4.094473 z"
                 id="path30" /></g></g><g
             id="g32"
             transform="matrix(0.57814277,0,0,0.57814277,-18.309607,8.4040237)"><text
               xml:space="preserve"
               style="font-style:normal;font-variant:normal;font-weight:500;font-stretch:normal;font-size:15.2978px;font-family:Poppins;-inkscape-font-specification:'Poppins Medium';text-align:center;writing-mode:lr-tb;direction:ltr;text-anchor:middle;fill:#dbe2e3;fill-opacity:1;stroke:none;stroke-width:0.120455;stroke-opacity:1"
               x="160.91702"
               y="32.892628"
               id="text31"
               transform="scale(0.93808208,1.0660048)"><tspan
                 id="tspan31"
                 style="font-style:normal;font-variant:normal;font-weight:500;font-stretch:normal;font-family:Poppins;-inkscape-font-specification:'Poppins Medium';fill:#dbe2e3;stroke:none;stroke-width:0.120455"
                 x="162.90573"
                 y="32.892628">S U D A </tspan></text><text
               xml:space="preserve"
               style="font-style:normal;font-variant:normal;font-weight:500;font-stretch:normal;font-size:14.5904px;font-family:Poppins;-inkscape-font-specification:'Poppins Medium';text-align:center;writing-mode:lr-tb;direction:ltr;text-anchor:middle;fill:#dbe2e3;fill-opacity:1;stroke:none;stroke-width:0.114885;stroke-opacity:1"
               x="153.87685"
               y="47.994396"
               id="text32"
               transform="scale(0.98356586,1.0167087)"><tspan
                 id="tspan32"
                 style="font-style:normal;font-variant:normal;font-weight:500;font-stretch:normal;font-family:Poppins;-inkscape-font-specification:'Poppins Medium';fill:#dbe2e3;stroke:none;stroke-width:0.114885"
                 x="153.87685"
                 y="47.994396">C O R E</tspan></text></g><g
             id="g34"
             transform="matrix(0.57814277,0,0,0.57814277,-18.274814,9.9271113)"><text
               xml:space="preserve"
               style="font-style:normal;font-variant:normal;font-weight:normal;font-stretch:normal;font-size:4.23009px;font-family:Poppins;-inkscape-font-specification:Poppins;text-align:center;writing-mode:lr-tb;direction:ltr;text-anchor:middle;fill:#dbe2e3;stroke:none;stroke-width:0.0333079;stroke-opacity:1"
               x="156.47548"
               y="53.406567"
               id="text33"
               transform="scale(0.94976676,1.0528901)"><tspan
                 id="tspan33"
                 style="font-style:normal;font-variant:normal;font-weight:normal;font-stretch:normal;font-family:Poppins;-inkscape-font-specification:Poppins;fill:#dbe2e3;stroke-width:0.0333079"
                 x="156.47548"
                 y="53.406567">Compliance que gera</tspan></text><text
               xml:space="preserve"
               style="font-style:normal;font-variant:normal;font-weight:normal;font-stretch:normal;font-size:4.23009px;font-family:Poppins;-inkscape-font-specification:Poppins;text-align:center;writing-mode:lr-tb;direction:ltr;text-anchor:middle;fill:#dbe2e3;stroke:none;stroke-width:0.0333079;stroke-opacity:1"
               x="161.91748"
               y="58.389626"
               id="text34"
               transform="scale(0.94976675,1.0528901)"><tspan
                 id="tspan34"
                 style="font-style:normal;font-variant:normal;font-weight:normal;font-stretch:normal;font-family:Poppins;-inkscape-font-specification:Poppins;fill:#dbe2e3;stroke-width:0.0333079"
                 x="161.91748"
                 y="58.389626">segurança e tranquilidade.</tspan></text></g><path
             style="fill:#dbe2e3;stroke:#008080;stroke-width:0.7;stroke-dasharray:none;stroke-opacity:1"
             d="m 117.59259,20.925926 c 0,14.074074 0,28.148148 0,42.222222"
             id="path34"
             transform="matrix(-0.57814277,0,0,0.5714253,116.94235,10.080876)" /></g><rect
           style="fill:none;fill-opacity:1;stroke:none;stroke-width:0.976653;stroke-dasharray:none;stroke-opacity:1"
           id="rect36"
           x="69.088501"
           y="132.45438"
           width="71.823006"
           height="32.091251" /><rect
           style="fill:none;fill-opacity:1;stroke:none;stroke-width:0.976653;stroke-dasharray:none;stroke-opacity:1"
           id="rect37"
           x="69.088501"
           y="132.45438"
           width="71.823006"
           height="32.091251" /></g></g></g></svg>
